<?xml version="1.0" encoding="utf-8"?>
<!-- Generator: Adobe Illustrator 26.0.2, SVG Export Plug-In . SVG Version: 6.00 Build 0)  -->
<svg version="1.1" id="Layer_1" xmlns="http://www.w3.org/2000/svg" xmlns:xlink="http://www.w3.org/1999/xlink" x="0px" y="0px"
	 viewBox="0 0 118 18" style="enable-background:new 0 0 118 18;" xml:space="preserve">
<style type="text/css">
	.st0{fill:#FFFFFF;}
</style>
<g>
	<path class="st0" d="M30.1,5.8V2.7h-8.8c-0.4,0-0.7,0.2-1,0.4l-2,2.1c-0.2,0.2-0.3,0.4-0.4,0.6c-0.1,0.2-0.1,0.5-0.1,0.8v4.8
		c0,0.5,0.2,1,0.6,1.4l2,2.1c0.3,0.3,0.6,0.4,1,0.4h8.8v-3.1h-9.4V5.8L30.1,5.8z"/>
	<path class="st0" d="M50.7,5.8V2.7h3.7c0.2,0,0.4,0,0.5,0.1c0.2,0.1,0.3,0.2,0.5,0.3l2,2.1c0.2,0.2,0.3,0.4,0.4,0.6
		C58,6.1,58,6.3,58,6.6v4.8c0,0.3,0,0.5-0.1,0.8c-0.1,0.2-0.2,0.5-0.4,0.6l-2,2.1c-0.3,0.3-0.6,0.4-1,0.4h-3.7v-3.1H55V5.8L50.7,5.8
		z"/>
	<path class="st0" d="M43.5,5.2l-2-2.1c-0.3-0.3-0.6-0.4-1-0.4h-5c-0.2,0-0.4,0-0.5,0.1c-0.2,0.1-0.3,0.2-0.5,0.3l-2,2.1
		c-0.2,0.2-0.3,0.4-0.4,0.6c-0.1,0.2-0.1,0.5-0.1,0.8v4.8c0,0.5,0.2,1,0.6,1.4l2,2.1c0.1,0.1,0.3,0.2,0.5,0.3
		c0.2,0.1,0.4,0.1,0.5,0.1h5c0.4,0,0.7-0.2,1-0.4l2-2.1c0.2-0.2,0.3-0.4,0.4-0.6c0.1-0.2,0.1-0.5,0.1-0.8V6.6c0-0.3,0-0.5-0.1-0.8
		C43.8,5.6,43.6,5.4,43.5,5.2z M41,12.2h-6.2V5.8H41V12.2z"/>
	<path class="st0" d="M48.7,2.7h-2.9v12.6h2.9V2.7z"/>
	<path class="st0" d="M66,10.5l3.1-4.8h-6.2v6.4h9.3v3.1h-8.7c-0.4,0-0.7-0.2-1-0.4l-2-2.1c-0.2-0.2-0.3-0.4-0.4-0.6
		c-0.1-0.2-0.1-0.5-0.1-0.8V6.6c0-0.3,0.1-0.5,0.1-0.8c0.1-0.2,0.2-0.5,0.4-0.6l2-2.1c0.3-0.3,0.6-0.4,1-0.4h8.7v3.1L69,10.5H66z"/>
	<path class="st0" d="M83.8,3.3l2.1,2.1c0.1,0.1,0.2,0.3,0.3,0.4c0.1,0.1,0.1,0.3,0.1,0.5v2.1c0,0.3-0.1,0.6-0.4,0.9l-2.7,2.8
		l3.1,3.3h-3.1l-3.1-3.3V9.1h3.2V5.6h-6.4v9.7h-3V2.7h8.5c0.3,0,0.5,0,0.7,0.1C83.4,2.9,83.6,3.1,83.8,3.3z"/>
	<path class="st0" d="M100.3,9L91,6.7V5.8h9.3V2.7h-8.5c-0.3,0-0.5,0.1-0.7,0.2c-0.2,0.1-0.4,0.2-0.6,0.4l-2.5,2.6V9l9.3,2.3v0.9
		h-9.3v3.1h8.5c0.5,0,1-0.2,1.3-0.6l2.6-2.6V9z"/>
</g>
</svg>
